M48
;DRILL file {KiCad 4.0.5} date Saturday, June 17, 2017 'PMt' 05:29:16 PM
;FORMAT={2:4/ absolute / inch / suppress trailing zeros}
FMAT,2
INCH,LZ
T1C0.031
T2C0.039
%
G90
G05
M72
T1
X043504Y-037748
X043504Y-040748
X044504Y-037748
X044504Y-040748
X045504Y-037748
X045504Y-040748
X046504Y-037748
X046504Y-040748
X047504Y-037748
X047504Y-040748
X048504Y-037748
X048504Y-040748
X049504Y-037748
X049504Y-040748
X050504Y-037748
X050504Y-040748
X051504Y-037748
X051504Y-040748
X052504Y-037748
X052504Y-040748
T2
X040945Y-038583
X040945Y-039583
X043898Y-033465
X043898Y-035236
X044094Y-042913
X044094Y-044685
X044898Y-033465
X044898Y-035236
X045094Y-042913
X045094Y-044685
X045898Y-033465
X045898Y-035236
X046094Y-042913
X046094Y-044685
X046898Y-033465
X046898Y-035236
X047094Y-042913
X047094Y-044685
X049165Y-042913
X049165Y-044685
X049362Y-033465
X049362Y-035236
X050165Y-042913
X050165Y-044685
X050362Y-033465
X050362Y-035236
X051165Y-042913
X051165Y-044685
X051362Y-033465
X051362Y-035236
X052165Y-042913
X052165Y-044685
X052362Y-033465
X052362Y-035236
T0
M30
