G04 #@! TF.FileFunction,Copper,L2,Bot,Signal*
%FSLAX46Y46*%
G04 Gerber Fmt 4.6, Leading zero omitted, Abs format (unit mm)*
G04 Created by KiCad (PCBNEW 4.0.5) date Saturday, June 17, 2017 'PMt' 05:29:07 PM*
%MOMM*%
%LPD*%
G01*
G04 APERTURE LIST*
%ADD10C,0.100000*%
%ADD11R,1.600000X1.600000*%
%ADD12O,1.600000X1.600000*%
%ADD13R,1.700000X1.700000*%
%ADD14O,1.700000X1.700000*%
%ADD15C,0.254000*%
G04 APERTURE END LIST*
D10*
D11*
X110500000Y-103500000D03*
D12*
X133360000Y-95880000D03*
X113040000Y-103500000D03*
X130820000Y-95880000D03*
X115580000Y-103500000D03*
X128280000Y-95880000D03*
X118120000Y-103500000D03*
X125740000Y-95880000D03*
X120660000Y-103500000D03*
X123200000Y-95880000D03*
X123200000Y-103500000D03*
X120660000Y-95880000D03*
X125740000Y-103500000D03*
X118120000Y-95880000D03*
X128280000Y-103500000D03*
X115580000Y-95880000D03*
X130820000Y-103500000D03*
X113040000Y-95880000D03*
X133360000Y-103500000D03*
X110500000Y-95880000D03*
D13*
X104000000Y-98000000D03*
D14*
X104000000Y-100540000D03*
D13*
X111500000Y-89500000D03*
D14*
X114040000Y-89500000D03*
X116580000Y-89500000D03*
X119120000Y-89500000D03*
D13*
X132500000Y-109000000D03*
D14*
X129960000Y-109000000D03*
X127420000Y-109000000D03*
X124880000Y-109000000D03*
D13*
X111500000Y-85000000D03*
D14*
X114040000Y-85000000D03*
X116580000Y-85000000D03*
X119120000Y-85000000D03*
D13*
X132500000Y-113500000D03*
D14*
X129960000Y-113500000D03*
X127420000Y-113500000D03*
X124880000Y-113500000D03*
D13*
X112000000Y-109000000D03*
D14*
X114540000Y-109000000D03*
X117080000Y-109000000D03*
X119620000Y-109000000D03*
D13*
X133000000Y-89500000D03*
D14*
X130460000Y-89500000D03*
X127920000Y-89500000D03*
X125380000Y-89500000D03*
D13*
X112000000Y-113500000D03*
D14*
X114540000Y-113500000D03*
X117080000Y-113500000D03*
X119620000Y-113500000D03*
D13*
X133000000Y-85000000D03*
D14*
X130460000Y-85000000D03*
X127920000Y-85000000D03*
X125380000Y-85000000D03*
D15*
X133000000Y-85000000D02*
X133000000Y-89500000D01*
X133000000Y-89500000D02*
X133360000Y-89860000D01*
X133360000Y-89860000D02*
X133360000Y-95880000D01*
X130460000Y-85000000D02*
X130460000Y-89500000D01*
X130460000Y-89500000D02*
X128280000Y-91680000D01*
X128280000Y-91680000D02*
X128280000Y-95880000D01*
X127920000Y-85000000D02*
X127920000Y-89500000D01*
X127920000Y-89500000D02*
X123200000Y-94220000D01*
X123200000Y-94220000D02*
X123200000Y-95880000D01*
X125380000Y-85000000D02*
X125380000Y-89500000D01*
X125380000Y-89500000D02*
X120880000Y-94000000D01*
X120880000Y-94000000D02*
X120000000Y-94000000D01*
X120000000Y-94000000D02*
X118120000Y-95880000D01*
X132500000Y-113500000D02*
X132500000Y-109000000D01*
X132500000Y-109000000D02*
X130820000Y-107320000D01*
X130820000Y-107320000D02*
X130820000Y-103500000D01*
X129960000Y-113500000D02*
X129960000Y-109000000D01*
X129960000Y-109000000D02*
X125740000Y-104780000D01*
X125740000Y-104780000D02*
X125740000Y-103500000D01*
X127420000Y-113500000D02*
X127420000Y-109000000D01*
X127420000Y-109000000D02*
X124420000Y-106000000D01*
X124420000Y-106000000D02*
X123160000Y-106000000D01*
X123160000Y-106000000D02*
X120660000Y-103500000D01*
X124880000Y-113500000D02*
X124880000Y-109000000D01*
X124880000Y-109000000D02*
X122380000Y-106500000D01*
X122380000Y-106500000D02*
X118580000Y-106500000D01*
X118580000Y-106500000D02*
X115580000Y-103500000D01*
G36*
X137873000Y-120873000D02*
X100127000Y-120873000D01*
X100127000Y-112650000D01*
X110502560Y-112650000D01*
X110502560Y-114350000D01*
X110546838Y-114585317D01*
X110685910Y-114801441D01*
X110898110Y-114946431D01*
X111150000Y-114997440D01*
X112850000Y-114997440D01*
X113085317Y-114953162D01*
X113301441Y-114814090D01*
X113446431Y-114601890D01*
X113460086Y-114534459D01*
X113489946Y-114579147D01*
X113971715Y-114901054D01*
X114540000Y-115014093D01*
X115108285Y-114901054D01*
X115590054Y-114579147D01*
X115810000Y-114249974D01*
X116029946Y-114579147D01*
X116511715Y-114901054D01*
X117080000Y-115014093D01*
X117648285Y-114901054D01*
X118130054Y-114579147D01*
X118350000Y-114249974D01*
X118569946Y-114579147D01*
X119051715Y-114901054D01*
X119620000Y-115014093D01*
X120188285Y-114901054D01*
X120670054Y-114579147D01*
X120991961Y-114097378D01*
X121105000Y-113529093D01*
X121105000Y-113470907D01*
X120991961Y-112902622D01*
X120670054Y-112420853D01*
X120188285Y-112098946D01*
X119620000Y-111985907D01*
X119051715Y-112098946D01*
X118569946Y-112420853D01*
X118350000Y-112750026D01*
X118130054Y-112420853D01*
X117648285Y-112098946D01*
X117080000Y-111985907D01*
X116511715Y-112098946D01*
X116029946Y-112420853D01*
X115810000Y-112750026D01*
X115590054Y-112420853D01*
X115108285Y-112098946D01*
X114540000Y-111985907D01*
X113971715Y-112098946D01*
X113489946Y-112420853D01*
X113462150Y-112462452D01*
X113453162Y-112414683D01*
X113314090Y-112198559D01*
X113101890Y-112053569D01*
X112850000Y-112002560D01*
X111150000Y-112002560D01*
X110914683Y-112046838D01*
X110698559Y-112185910D01*
X110553569Y-112398110D01*
X110502560Y-112650000D01*
X100127000Y-112650000D01*
X100127000Y-108150000D01*
X110502560Y-108150000D01*
X110502560Y-109850000D01*
X110546838Y-110085317D01*
X110685910Y-110301441D01*
X110898110Y-110446431D01*
X111150000Y-110497440D01*
X112850000Y-110497440D01*
X113085317Y-110453162D01*
X113301441Y-110314090D01*
X113446431Y-110101890D01*
X113460086Y-110034459D01*
X113489946Y-110079147D01*
X113971715Y-110401054D01*
X114540000Y-110514093D01*
X115108285Y-110401054D01*
X115590054Y-110079147D01*
X115810000Y-109749974D01*
X116029946Y-110079147D01*
X116511715Y-110401054D01*
X117080000Y-110514093D01*
X117648285Y-110401054D01*
X118130054Y-110079147D01*
X118350000Y-109749974D01*
X118569946Y-110079147D01*
X119051715Y-110401054D01*
X119620000Y-110514093D01*
X120188285Y-110401054D01*
X120670054Y-110079147D01*
X120991961Y-109597378D01*
X121105000Y-109029093D01*
X121105000Y-108970907D01*
X120991961Y-108402622D01*
X120670054Y-107920853D01*
X120188285Y-107598946D01*
X119620000Y-107485907D01*
X119051715Y-107598946D01*
X118569946Y-107920853D01*
X118350000Y-108250026D01*
X118130054Y-107920853D01*
X117648285Y-107598946D01*
X117080000Y-107485907D01*
X116511715Y-107598946D01*
X116029946Y-107920853D01*
X115810000Y-108250026D01*
X115590054Y-107920853D01*
X115108285Y-107598946D01*
X114540000Y-107485907D01*
X113971715Y-107598946D01*
X113489946Y-107920853D01*
X113462150Y-107962452D01*
X113453162Y-107914683D01*
X113314090Y-107698559D01*
X113101890Y-107553569D01*
X112850000Y-107502560D01*
X111150000Y-107502560D01*
X110914683Y-107546838D01*
X110698559Y-107685910D01*
X110553569Y-107898110D01*
X110502560Y-108150000D01*
X100127000Y-108150000D01*
X100127000Y-103785750D01*
X109065000Y-103785750D01*
X109065000Y-104426309D01*
X109161673Y-104659698D01*
X109340301Y-104838327D01*
X109573690Y-104935000D01*
X110214250Y-104935000D01*
X110373000Y-104776250D01*
X110373000Y-103627000D01*
X109223750Y-103627000D01*
X109065000Y-103785750D01*
X100127000Y-103785750D01*
X100127000Y-102573691D01*
X109065000Y-102573691D01*
X109065000Y-103214250D01*
X109223750Y-103373000D01*
X110373000Y-103373000D01*
X110373000Y-102223750D01*
X110627000Y-102223750D01*
X110627000Y-103373000D01*
X110647000Y-103373000D01*
X110647000Y-103627000D01*
X110627000Y-103627000D01*
X110627000Y-104776250D01*
X110785750Y-104935000D01*
X111426310Y-104935000D01*
X111659699Y-104838327D01*
X111838327Y-104659698D01*
X111935000Y-104426309D01*
X111935000Y-104407665D01*
X112025302Y-104542811D01*
X112490849Y-104853880D01*
X113040000Y-104963113D01*
X113589151Y-104853880D01*
X114054698Y-104542811D01*
X114310000Y-104160725D01*
X114565302Y-104542811D01*
X115030849Y-104853880D01*
X115580000Y-104963113D01*
X115901527Y-104899157D01*
X118041185Y-107038816D01*
X118189377Y-107137834D01*
X118288395Y-107203996D01*
X118580000Y-107262000D01*
X122064370Y-107262000D01*
X123457760Y-108655390D01*
X123395000Y-108970907D01*
X123395000Y-109029093D01*
X123508039Y-109597378D01*
X123829946Y-110079147D01*
X124118000Y-110271618D01*
X124118000Y-112228382D01*
X123829946Y-112420853D01*
X123508039Y-112902622D01*
X123395000Y-113470907D01*
X123395000Y-113529093D01*
X123508039Y-114097378D01*
X123829946Y-114579147D01*
X124311715Y-114901054D01*
X124880000Y-115014093D01*
X125448285Y-114901054D01*
X125930054Y-114579147D01*
X126150000Y-114249974D01*
X126369946Y-114579147D01*
X126851715Y-114901054D01*
X127420000Y-115014093D01*
X127988285Y-114901054D01*
X128470054Y-114579147D01*
X128690000Y-114249974D01*
X128909946Y-114579147D01*
X129391715Y-114901054D01*
X129960000Y-115014093D01*
X130528285Y-114901054D01*
X131010054Y-114579147D01*
X131037850Y-114537548D01*
X131046838Y-114585317D01*
X131185910Y-114801441D01*
X131398110Y-114946431D01*
X131650000Y-114997440D01*
X133350000Y-114997440D01*
X133585317Y-114953162D01*
X133801441Y-114814090D01*
X133946431Y-114601890D01*
X133997440Y-114350000D01*
X133997440Y-112650000D01*
X133953162Y-112414683D01*
X133814090Y-112198559D01*
X133601890Y-112053569D01*
X133350000Y-112002560D01*
X133262000Y-112002560D01*
X133262000Y-110497440D01*
X133350000Y-110497440D01*
X133585317Y-110453162D01*
X133801441Y-110314090D01*
X133946431Y-110101890D01*
X133997440Y-109850000D01*
X133997440Y-108150000D01*
X133953162Y-107914683D01*
X133814090Y-107698559D01*
X133601890Y-107553569D01*
X133350000Y-107502560D01*
X132080190Y-107502560D01*
X131582000Y-107004370D01*
X131582000Y-104711659D01*
X131834698Y-104542811D01*
X132104986Y-104138297D01*
X132207611Y-104355134D01*
X132622577Y-104731041D01*
X133010961Y-104891904D01*
X133233000Y-104769915D01*
X133233000Y-103627000D01*
X133487000Y-103627000D01*
X133487000Y-104769915D01*
X133709039Y-104891904D01*
X134097423Y-104731041D01*
X134512389Y-104355134D01*
X134751914Y-103849041D01*
X134630629Y-103627000D01*
X133487000Y-103627000D01*
X133233000Y-103627000D01*
X133213000Y-103627000D01*
X133213000Y-103373000D01*
X133233000Y-103373000D01*
X133233000Y-102230085D01*
X133487000Y-102230085D01*
X133487000Y-103373000D01*
X134630629Y-103373000D01*
X134751914Y-103150959D01*
X134512389Y-102644866D01*
X134097423Y-102268959D01*
X133709039Y-102108096D01*
X133487000Y-102230085D01*
X133233000Y-102230085D01*
X133010961Y-102108096D01*
X132622577Y-102268959D01*
X132207611Y-102644866D01*
X132104986Y-102861703D01*
X131834698Y-102457189D01*
X131369151Y-102146120D01*
X130820000Y-102036887D01*
X130270849Y-102146120D01*
X129805302Y-102457189D01*
X129550000Y-102839275D01*
X129294698Y-102457189D01*
X128829151Y-102146120D01*
X128280000Y-102036887D01*
X127730849Y-102146120D01*
X127265302Y-102457189D01*
X127010000Y-102839275D01*
X126754698Y-102457189D01*
X126289151Y-102146120D01*
X125740000Y-102036887D01*
X125190849Y-102146120D01*
X124725302Y-102457189D01*
X124470000Y-102839275D01*
X124214698Y-102457189D01*
X123749151Y-102146120D01*
X123200000Y-102036887D01*
X122650849Y-102146120D01*
X122185302Y-102457189D01*
X121930000Y-102839275D01*
X121674698Y-102457189D01*
X121209151Y-102146120D01*
X120660000Y-102036887D01*
X120110849Y-102146120D01*
X119645302Y-102457189D01*
X119390000Y-102839275D01*
X119134698Y-102457189D01*
X118669151Y-102146120D01*
X118120000Y-102036887D01*
X117570849Y-102146120D01*
X117105302Y-102457189D01*
X116850000Y-102839275D01*
X116594698Y-102457189D01*
X116129151Y-102146120D01*
X115580000Y-102036887D01*
X115030849Y-102146120D01*
X114565302Y-102457189D01*
X114310000Y-102839275D01*
X114054698Y-102457189D01*
X113589151Y-102146120D01*
X113040000Y-102036887D01*
X112490849Y-102146120D01*
X112025302Y-102457189D01*
X111935000Y-102592335D01*
X111935000Y-102573691D01*
X111838327Y-102340302D01*
X111659699Y-102161673D01*
X111426310Y-102065000D01*
X110785750Y-102065000D01*
X110627000Y-102223750D01*
X110373000Y-102223750D01*
X110214250Y-102065000D01*
X109573690Y-102065000D01*
X109340301Y-102161673D01*
X109161673Y-102340302D01*
X109065000Y-102573691D01*
X100127000Y-102573691D01*
X100127000Y-100896890D01*
X102558524Y-100896890D01*
X102728355Y-101306924D01*
X103118642Y-101735183D01*
X103643108Y-101981486D01*
X103873000Y-101860819D01*
X103873000Y-100667000D01*
X104127000Y-100667000D01*
X104127000Y-101860819D01*
X104356892Y-101981486D01*
X104881358Y-101735183D01*
X105271645Y-101306924D01*
X105441476Y-100896890D01*
X105320155Y-100667000D01*
X104127000Y-100667000D01*
X103873000Y-100667000D01*
X102679845Y-100667000D01*
X102558524Y-100896890D01*
X100127000Y-100896890D01*
X100127000Y-97150000D01*
X102502560Y-97150000D01*
X102502560Y-98850000D01*
X102546838Y-99085317D01*
X102685910Y-99301441D01*
X102898110Y-99446431D01*
X103006107Y-99468301D01*
X102728355Y-99773076D01*
X102558524Y-100183110D01*
X102679845Y-100413000D01*
X103873000Y-100413000D01*
X103873000Y-100393000D01*
X104127000Y-100393000D01*
X104127000Y-100413000D01*
X105320155Y-100413000D01*
X105441476Y-100183110D01*
X105271645Y-99773076D01*
X104995499Y-99470063D01*
X105085317Y-99453162D01*
X105301441Y-99314090D01*
X105446431Y-99101890D01*
X105497440Y-98850000D01*
X105497440Y-97150000D01*
X105453162Y-96914683D01*
X105314090Y-96698559D01*
X105101890Y-96553569D01*
X104850000Y-96502560D01*
X103150000Y-96502560D01*
X102914683Y-96546838D01*
X102698559Y-96685910D01*
X102553569Y-96898110D01*
X102502560Y-97150000D01*
X100127000Y-97150000D01*
X100127000Y-95851887D01*
X109065000Y-95851887D01*
X109065000Y-95908113D01*
X109174233Y-96457264D01*
X109485302Y-96922811D01*
X109950849Y-97233880D01*
X110500000Y-97343113D01*
X111049151Y-97233880D01*
X111514698Y-96922811D01*
X111784986Y-96518297D01*
X111887611Y-96735134D01*
X112302577Y-97111041D01*
X112690961Y-97271904D01*
X112913000Y-97149915D01*
X112913000Y-96007000D01*
X112893000Y-96007000D01*
X112893000Y-95753000D01*
X112913000Y-95753000D01*
X112913000Y-94610085D01*
X113167000Y-94610085D01*
X113167000Y-95753000D01*
X113187000Y-95753000D01*
X113187000Y-96007000D01*
X113167000Y-96007000D01*
X113167000Y-97149915D01*
X113389039Y-97271904D01*
X113777423Y-97111041D01*
X114192389Y-96735134D01*
X114295014Y-96518297D01*
X114565302Y-96922811D01*
X115030849Y-97233880D01*
X115580000Y-97343113D01*
X116129151Y-97233880D01*
X116594698Y-96922811D01*
X116850000Y-96540725D01*
X117105302Y-96922811D01*
X117570849Y-97233880D01*
X118120000Y-97343113D01*
X118669151Y-97233880D01*
X119134698Y-96922811D01*
X119390000Y-96540725D01*
X119645302Y-96922811D01*
X120110849Y-97233880D01*
X120660000Y-97343113D01*
X121209151Y-97233880D01*
X121674698Y-96922811D01*
X121930000Y-96540725D01*
X122185302Y-96922811D01*
X122650849Y-97233880D01*
X123200000Y-97343113D01*
X123749151Y-97233880D01*
X124214698Y-96922811D01*
X124470000Y-96540725D01*
X124725302Y-96922811D01*
X125190849Y-97233880D01*
X125740000Y-97343113D01*
X126289151Y-97233880D01*
X126754698Y-96922811D01*
X127010000Y-96540725D01*
X127265302Y-96922811D01*
X127730849Y-97233880D01*
X128280000Y-97343113D01*
X128829151Y-97233880D01*
X129294698Y-96922811D01*
X129550000Y-96540725D01*
X129805302Y-96922811D01*
X130270849Y-97233880D01*
X130820000Y-97343113D01*
X131369151Y-97233880D01*
X131834698Y-96922811D01*
X132090000Y-96540725D01*
X132345302Y-96922811D01*
X132810849Y-97233880D01*
X133360000Y-97343113D01*
X133909151Y-97233880D01*
X134374698Y-96922811D01*
X134685767Y-96457264D01*
X134795000Y-95908113D01*
X134795000Y-95851887D01*
X134685767Y-95302736D01*
X134374698Y-94837189D01*
X134122000Y-94668341D01*
X134122000Y-90929557D01*
X134301441Y-90814090D01*
X134446431Y-90601890D01*
X134497440Y-90350000D01*
X134497440Y-88650000D01*
X134453162Y-88414683D01*
X134314090Y-88198559D01*
X134101890Y-88053569D01*
X133850000Y-88002560D01*
X133762000Y-88002560D01*
X133762000Y-86497440D01*
X133850000Y-86497440D01*
X134085317Y-86453162D01*
X134301441Y-86314090D01*
X134446431Y-86101890D01*
X134497440Y-85850000D01*
X134497440Y-84150000D01*
X134453162Y-83914683D01*
X134314090Y-83698559D01*
X134101890Y-83553569D01*
X133850000Y-83502560D01*
X132150000Y-83502560D01*
X131914683Y-83546838D01*
X131698559Y-83685910D01*
X131553569Y-83898110D01*
X131539914Y-83965541D01*
X131510054Y-83920853D01*
X131028285Y-83598946D01*
X130460000Y-83485907D01*
X129891715Y-83598946D01*
X129409946Y-83920853D01*
X129190000Y-84250026D01*
X128970054Y-83920853D01*
X128488285Y-83598946D01*
X127920000Y-83485907D01*
X127351715Y-83598946D01*
X126869946Y-83920853D01*
X126650000Y-84250026D01*
X126430054Y-83920853D01*
X125948285Y-83598946D01*
X125380000Y-83485907D01*
X124811715Y-83598946D01*
X124329946Y-83920853D01*
X124008039Y-84402622D01*
X123895000Y-84970907D01*
X123895000Y-85029093D01*
X124008039Y-85597378D01*
X124329946Y-86079147D01*
X124618000Y-86271618D01*
X124618000Y-88228382D01*
X124329946Y-88420853D01*
X124008039Y-88902622D01*
X123895000Y-89470907D01*
X123895000Y-89529093D01*
X123957760Y-89844610D01*
X120564370Y-93238000D01*
X120000000Y-93238000D01*
X119708395Y-93296004D01*
X119461184Y-93461185D01*
X118441527Y-94480843D01*
X118120000Y-94416887D01*
X117570849Y-94526120D01*
X117105302Y-94837189D01*
X116850000Y-95219275D01*
X116594698Y-94837189D01*
X116129151Y-94526120D01*
X115580000Y-94416887D01*
X115030849Y-94526120D01*
X114565302Y-94837189D01*
X114295014Y-95241703D01*
X114192389Y-95024866D01*
X113777423Y-94648959D01*
X113389039Y-94488096D01*
X113167000Y-94610085D01*
X112913000Y-94610085D01*
X112690961Y-94488096D01*
X112302577Y-94648959D01*
X111887611Y-95024866D01*
X111784986Y-95241703D01*
X111514698Y-94837189D01*
X111049151Y-94526120D01*
X110500000Y-94416887D01*
X109950849Y-94526120D01*
X109485302Y-94837189D01*
X109174233Y-95302736D01*
X109065000Y-95851887D01*
X100127000Y-95851887D01*
X100127000Y-88650000D01*
X110002560Y-88650000D01*
X110002560Y-90350000D01*
X110046838Y-90585317D01*
X110185910Y-90801441D01*
X110398110Y-90946431D01*
X110650000Y-90997440D01*
X112350000Y-90997440D01*
X112585317Y-90953162D01*
X112801441Y-90814090D01*
X112946431Y-90601890D01*
X112960086Y-90534459D01*
X112989946Y-90579147D01*
X113471715Y-90901054D01*
X114040000Y-91014093D01*
X114608285Y-90901054D01*
X115090054Y-90579147D01*
X115310000Y-90249974D01*
X115529946Y-90579147D01*
X116011715Y-90901054D01*
X116580000Y-91014093D01*
X117148285Y-90901054D01*
X117630054Y-90579147D01*
X117850000Y-90249974D01*
X118069946Y-90579147D01*
X118551715Y-90901054D01*
X119120000Y-91014093D01*
X119688285Y-90901054D01*
X120170054Y-90579147D01*
X120491961Y-90097378D01*
X120605000Y-89529093D01*
X120605000Y-89470907D01*
X120491961Y-88902622D01*
X120170054Y-88420853D01*
X119688285Y-88098946D01*
X119120000Y-87985907D01*
X118551715Y-88098946D01*
X118069946Y-88420853D01*
X117850000Y-88750026D01*
X117630054Y-88420853D01*
X117148285Y-88098946D01*
X116580000Y-87985907D01*
X116011715Y-88098946D01*
X115529946Y-88420853D01*
X115310000Y-88750026D01*
X115090054Y-88420853D01*
X114608285Y-88098946D01*
X114040000Y-87985907D01*
X113471715Y-88098946D01*
X112989946Y-88420853D01*
X112962150Y-88462452D01*
X112953162Y-88414683D01*
X112814090Y-88198559D01*
X112601890Y-88053569D01*
X112350000Y-88002560D01*
X110650000Y-88002560D01*
X110414683Y-88046838D01*
X110198559Y-88185910D01*
X110053569Y-88398110D01*
X110002560Y-88650000D01*
X100127000Y-88650000D01*
X100127000Y-84150000D01*
X110002560Y-84150000D01*
X110002560Y-85850000D01*
X110046838Y-86085317D01*
X110185910Y-86301441D01*
X110398110Y-86446431D01*
X110650000Y-86497440D01*
X112350000Y-86497440D01*
X112585317Y-86453162D01*
X112801441Y-86314090D01*
X112946431Y-86101890D01*
X112960086Y-86034459D01*
X112989946Y-86079147D01*
X113471715Y-86401054D01*
X114040000Y-86514093D01*
X114608285Y-86401054D01*
X115090054Y-86079147D01*
X115310000Y-85749974D01*
X115529946Y-86079147D01*
X116011715Y-86401054D01*
X116580000Y-86514093D01*
X117148285Y-86401054D01*
X117630054Y-86079147D01*
X117850000Y-85749974D01*
X118069946Y-86079147D01*
X118551715Y-86401054D01*
X119120000Y-86514093D01*
X119688285Y-86401054D01*
X120170054Y-86079147D01*
X120491961Y-85597378D01*
X120605000Y-85029093D01*
X120605000Y-84970907D01*
X120491961Y-84402622D01*
X120170054Y-83920853D01*
X119688285Y-83598946D01*
X119120000Y-83485907D01*
X118551715Y-83598946D01*
X118069946Y-83920853D01*
X117850000Y-84250026D01*
X117630054Y-83920853D01*
X117148285Y-83598946D01*
X116580000Y-83485907D01*
X116011715Y-83598946D01*
X115529946Y-83920853D01*
X115310000Y-84250026D01*
X115090054Y-83920853D01*
X114608285Y-83598946D01*
X114040000Y-83485907D01*
X113471715Y-83598946D01*
X112989946Y-83920853D01*
X112962150Y-83962452D01*
X112953162Y-83914683D01*
X112814090Y-83698559D01*
X112601890Y-83553569D01*
X112350000Y-83502560D01*
X110650000Y-83502560D01*
X110414683Y-83546838D01*
X110198559Y-83685910D01*
X110053569Y-83898110D01*
X110002560Y-84150000D01*
X100127000Y-84150000D01*
X100127000Y-78127000D01*
X137873000Y-78127000D01*
X137873000Y-120873000D01*
X137873000Y-120873000D01*
G37*
X137873000Y-120873000D02*
X100127000Y-120873000D01*
X100127000Y-112650000D01*
X110502560Y-112650000D01*
X110502560Y-114350000D01*
X110546838Y-114585317D01*
X110685910Y-114801441D01*
X110898110Y-114946431D01*
X111150000Y-114997440D01*
X112850000Y-114997440D01*
X113085317Y-114953162D01*
X113301441Y-114814090D01*
X113446431Y-114601890D01*
X113460086Y-114534459D01*
X113489946Y-114579147D01*
X113971715Y-114901054D01*
X114540000Y-115014093D01*
X115108285Y-114901054D01*
X115590054Y-114579147D01*
X115810000Y-114249974D01*
X116029946Y-114579147D01*
X116511715Y-114901054D01*
X117080000Y-115014093D01*
X117648285Y-114901054D01*
X118130054Y-114579147D01*
X118350000Y-114249974D01*
X118569946Y-114579147D01*
X119051715Y-114901054D01*
X119620000Y-115014093D01*
X120188285Y-114901054D01*
X120670054Y-114579147D01*
X120991961Y-114097378D01*
X121105000Y-113529093D01*
X121105000Y-113470907D01*
X120991961Y-112902622D01*
X120670054Y-112420853D01*
X120188285Y-112098946D01*
X119620000Y-111985907D01*
X119051715Y-112098946D01*
X118569946Y-112420853D01*
X118350000Y-112750026D01*
X118130054Y-112420853D01*
X117648285Y-112098946D01*
X117080000Y-111985907D01*
X116511715Y-112098946D01*
X116029946Y-112420853D01*
X115810000Y-112750026D01*
X115590054Y-112420853D01*
X115108285Y-112098946D01*
X114540000Y-111985907D01*
X113971715Y-112098946D01*
X113489946Y-112420853D01*
X113462150Y-112462452D01*
X113453162Y-112414683D01*
X113314090Y-112198559D01*
X113101890Y-112053569D01*
X112850000Y-112002560D01*
X111150000Y-112002560D01*
X110914683Y-112046838D01*
X110698559Y-112185910D01*
X110553569Y-112398110D01*
X110502560Y-112650000D01*
X100127000Y-112650000D01*
X100127000Y-108150000D01*
X110502560Y-108150000D01*
X110502560Y-109850000D01*
X110546838Y-110085317D01*
X110685910Y-110301441D01*
X110898110Y-110446431D01*
X111150000Y-110497440D01*
X112850000Y-110497440D01*
X113085317Y-110453162D01*
X113301441Y-110314090D01*
X113446431Y-110101890D01*
X113460086Y-110034459D01*
X113489946Y-110079147D01*
X113971715Y-110401054D01*
X114540000Y-110514093D01*
X115108285Y-110401054D01*
X115590054Y-110079147D01*
X115810000Y-109749974D01*
X116029946Y-110079147D01*
X116511715Y-110401054D01*
X117080000Y-110514093D01*
X117648285Y-110401054D01*
X118130054Y-110079147D01*
X118350000Y-109749974D01*
X118569946Y-110079147D01*
X119051715Y-110401054D01*
X119620000Y-110514093D01*
X120188285Y-110401054D01*
X120670054Y-110079147D01*
X120991961Y-109597378D01*
X121105000Y-109029093D01*
X121105000Y-108970907D01*
X120991961Y-108402622D01*
X120670054Y-107920853D01*
X120188285Y-107598946D01*
X119620000Y-107485907D01*
X119051715Y-107598946D01*
X118569946Y-107920853D01*
X118350000Y-108250026D01*
X118130054Y-107920853D01*
X117648285Y-107598946D01*
X117080000Y-107485907D01*
X116511715Y-107598946D01*
X116029946Y-107920853D01*
X115810000Y-108250026D01*
X115590054Y-107920853D01*
X115108285Y-107598946D01*
X114540000Y-107485907D01*
X113971715Y-107598946D01*
X113489946Y-107920853D01*
X113462150Y-107962452D01*
X113453162Y-107914683D01*
X113314090Y-107698559D01*
X113101890Y-107553569D01*
X112850000Y-107502560D01*
X111150000Y-107502560D01*
X110914683Y-107546838D01*
X110698559Y-107685910D01*
X110553569Y-107898110D01*
X110502560Y-108150000D01*
X100127000Y-108150000D01*
X100127000Y-103785750D01*
X109065000Y-103785750D01*
X109065000Y-104426309D01*
X109161673Y-104659698D01*
X109340301Y-104838327D01*
X109573690Y-104935000D01*
X110214250Y-104935000D01*
X110373000Y-104776250D01*
X110373000Y-103627000D01*
X109223750Y-103627000D01*
X109065000Y-103785750D01*
X100127000Y-103785750D01*
X100127000Y-102573691D01*
X109065000Y-102573691D01*
X109065000Y-103214250D01*
X109223750Y-103373000D01*
X110373000Y-103373000D01*
X110373000Y-102223750D01*
X110627000Y-102223750D01*
X110627000Y-103373000D01*
X110647000Y-103373000D01*
X110647000Y-103627000D01*
X110627000Y-103627000D01*
X110627000Y-104776250D01*
X110785750Y-104935000D01*
X111426310Y-104935000D01*
X111659699Y-104838327D01*
X111838327Y-104659698D01*
X111935000Y-104426309D01*
X111935000Y-104407665D01*
X112025302Y-104542811D01*
X112490849Y-104853880D01*
X113040000Y-104963113D01*
X113589151Y-104853880D01*
X114054698Y-104542811D01*
X114310000Y-104160725D01*
X114565302Y-104542811D01*
X115030849Y-104853880D01*
X115580000Y-104963113D01*
X115901527Y-104899157D01*
X118041185Y-107038816D01*
X118189377Y-107137834D01*
X118288395Y-107203996D01*
X118580000Y-107262000D01*
X122064370Y-107262000D01*
X123457760Y-108655390D01*
X123395000Y-108970907D01*
X123395000Y-109029093D01*
X123508039Y-109597378D01*
X123829946Y-110079147D01*
X124118000Y-110271618D01*
X124118000Y-112228382D01*
X123829946Y-112420853D01*
X123508039Y-112902622D01*
X123395000Y-113470907D01*
X123395000Y-113529093D01*
X123508039Y-114097378D01*
X123829946Y-114579147D01*
X124311715Y-114901054D01*
X124880000Y-115014093D01*
X125448285Y-114901054D01*
X125930054Y-114579147D01*
X126150000Y-114249974D01*
X126369946Y-114579147D01*
X126851715Y-114901054D01*
X127420000Y-115014093D01*
X127988285Y-114901054D01*
X128470054Y-114579147D01*
X128690000Y-114249974D01*
X128909946Y-114579147D01*
X129391715Y-114901054D01*
X129960000Y-115014093D01*
X130528285Y-114901054D01*
X131010054Y-114579147D01*
X131037850Y-114537548D01*
X131046838Y-114585317D01*
X131185910Y-114801441D01*
X131398110Y-114946431D01*
X131650000Y-114997440D01*
X133350000Y-114997440D01*
X133585317Y-114953162D01*
X133801441Y-114814090D01*
X133946431Y-114601890D01*
X133997440Y-114350000D01*
X133997440Y-112650000D01*
X133953162Y-112414683D01*
X133814090Y-112198559D01*
X133601890Y-112053569D01*
X133350000Y-112002560D01*
X133262000Y-112002560D01*
X133262000Y-110497440D01*
X133350000Y-110497440D01*
X133585317Y-110453162D01*
X133801441Y-110314090D01*
X133946431Y-110101890D01*
X133997440Y-109850000D01*
X133997440Y-108150000D01*
X133953162Y-107914683D01*
X133814090Y-107698559D01*
X133601890Y-107553569D01*
X133350000Y-107502560D01*
X132080190Y-107502560D01*
X131582000Y-107004370D01*
X131582000Y-104711659D01*
X131834698Y-104542811D01*
X132104986Y-104138297D01*
X132207611Y-104355134D01*
X132622577Y-104731041D01*
X133010961Y-104891904D01*
X133233000Y-104769915D01*
X133233000Y-103627000D01*
X133487000Y-103627000D01*
X133487000Y-104769915D01*
X133709039Y-104891904D01*
X134097423Y-104731041D01*
X134512389Y-104355134D01*
X134751914Y-103849041D01*
X134630629Y-103627000D01*
X133487000Y-103627000D01*
X133233000Y-103627000D01*
X133213000Y-103627000D01*
X133213000Y-103373000D01*
X133233000Y-103373000D01*
X133233000Y-102230085D01*
X133487000Y-102230085D01*
X133487000Y-103373000D01*
X134630629Y-103373000D01*
X134751914Y-103150959D01*
X134512389Y-102644866D01*
X134097423Y-102268959D01*
X133709039Y-102108096D01*
X133487000Y-102230085D01*
X133233000Y-102230085D01*
X133010961Y-102108096D01*
X132622577Y-102268959D01*
X132207611Y-102644866D01*
X132104986Y-102861703D01*
X131834698Y-102457189D01*
X131369151Y-102146120D01*
X130820000Y-102036887D01*
X130270849Y-102146120D01*
X129805302Y-102457189D01*
X129550000Y-102839275D01*
X129294698Y-102457189D01*
X128829151Y-102146120D01*
X128280000Y-102036887D01*
X127730849Y-102146120D01*
X127265302Y-102457189D01*
X127010000Y-102839275D01*
X126754698Y-102457189D01*
X126289151Y-102146120D01*
X125740000Y-102036887D01*
X125190849Y-102146120D01*
X124725302Y-102457189D01*
X124470000Y-102839275D01*
X124214698Y-102457189D01*
X123749151Y-102146120D01*
X123200000Y-102036887D01*
X122650849Y-102146120D01*
X122185302Y-102457189D01*
X121930000Y-102839275D01*
X121674698Y-102457189D01*
X121209151Y-102146120D01*
X120660000Y-102036887D01*
X120110849Y-102146120D01*
X119645302Y-102457189D01*
X119390000Y-102839275D01*
X119134698Y-102457189D01*
X118669151Y-102146120D01*
X118120000Y-102036887D01*
X117570849Y-102146120D01*
X117105302Y-102457189D01*
X116850000Y-102839275D01*
X116594698Y-102457189D01*
X116129151Y-102146120D01*
X115580000Y-102036887D01*
X115030849Y-102146120D01*
X114565302Y-102457189D01*
X114310000Y-102839275D01*
X114054698Y-102457189D01*
X113589151Y-102146120D01*
X113040000Y-102036887D01*
X112490849Y-102146120D01*
X112025302Y-102457189D01*
X111935000Y-102592335D01*
X111935000Y-102573691D01*
X111838327Y-102340302D01*
X111659699Y-102161673D01*
X111426310Y-102065000D01*
X110785750Y-102065000D01*
X110627000Y-102223750D01*
X110373000Y-102223750D01*
X110214250Y-102065000D01*
X109573690Y-102065000D01*
X109340301Y-102161673D01*
X109161673Y-102340302D01*
X109065000Y-102573691D01*
X100127000Y-102573691D01*
X100127000Y-100896890D01*
X102558524Y-100896890D01*
X102728355Y-101306924D01*
X103118642Y-101735183D01*
X103643108Y-101981486D01*
X103873000Y-101860819D01*
X103873000Y-100667000D01*
X104127000Y-100667000D01*
X104127000Y-101860819D01*
X104356892Y-101981486D01*
X104881358Y-101735183D01*
X105271645Y-101306924D01*
X105441476Y-100896890D01*
X105320155Y-100667000D01*
X104127000Y-100667000D01*
X103873000Y-100667000D01*
X102679845Y-100667000D01*
X102558524Y-100896890D01*
X100127000Y-100896890D01*
X100127000Y-97150000D01*
X102502560Y-97150000D01*
X102502560Y-98850000D01*
X102546838Y-99085317D01*
X102685910Y-99301441D01*
X102898110Y-99446431D01*
X103006107Y-99468301D01*
X102728355Y-99773076D01*
X102558524Y-100183110D01*
X102679845Y-100413000D01*
X103873000Y-100413000D01*
X103873000Y-100393000D01*
X104127000Y-100393000D01*
X104127000Y-100413000D01*
X105320155Y-100413000D01*
X105441476Y-100183110D01*
X105271645Y-99773076D01*
X104995499Y-99470063D01*
X105085317Y-99453162D01*
X105301441Y-99314090D01*
X105446431Y-99101890D01*
X105497440Y-98850000D01*
X105497440Y-97150000D01*
X105453162Y-96914683D01*
X105314090Y-96698559D01*
X105101890Y-96553569D01*
X104850000Y-96502560D01*
X103150000Y-96502560D01*
X102914683Y-96546838D01*
X102698559Y-96685910D01*
X102553569Y-96898110D01*
X102502560Y-97150000D01*
X100127000Y-97150000D01*
X100127000Y-95851887D01*
X109065000Y-95851887D01*
X109065000Y-95908113D01*
X109174233Y-96457264D01*
X109485302Y-96922811D01*
X109950849Y-97233880D01*
X110500000Y-97343113D01*
X111049151Y-97233880D01*
X111514698Y-96922811D01*
X111784986Y-96518297D01*
X111887611Y-96735134D01*
X112302577Y-97111041D01*
X112690961Y-97271904D01*
X112913000Y-97149915D01*
X112913000Y-96007000D01*
X112893000Y-96007000D01*
X112893000Y-95753000D01*
X112913000Y-95753000D01*
X112913000Y-94610085D01*
X113167000Y-94610085D01*
X113167000Y-95753000D01*
X113187000Y-95753000D01*
X113187000Y-96007000D01*
X113167000Y-96007000D01*
X113167000Y-97149915D01*
X113389039Y-97271904D01*
X113777423Y-97111041D01*
X114192389Y-96735134D01*
X114295014Y-96518297D01*
X114565302Y-96922811D01*
X115030849Y-97233880D01*
X115580000Y-97343113D01*
X116129151Y-97233880D01*
X116594698Y-96922811D01*
X116850000Y-96540725D01*
X117105302Y-96922811D01*
X117570849Y-97233880D01*
X118120000Y-97343113D01*
X118669151Y-97233880D01*
X119134698Y-96922811D01*
X119390000Y-96540725D01*
X119645302Y-96922811D01*
X120110849Y-97233880D01*
X120660000Y-97343113D01*
X121209151Y-97233880D01*
X121674698Y-96922811D01*
X121930000Y-96540725D01*
X122185302Y-96922811D01*
X122650849Y-97233880D01*
X123200000Y-97343113D01*
X123749151Y-97233880D01*
X124214698Y-96922811D01*
X124470000Y-96540725D01*
X124725302Y-96922811D01*
X125190849Y-97233880D01*
X125740000Y-97343113D01*
X126289151Y-97233880D01*
X126754698Y-96922811D01*
X127010000Y-96540725D01*
X127265302Y-96922811D01*
X127730849Y-97233880D01*
X128280000Y-97343113D01*
X128829151Y-97233880D01*
X129294698Y-96922811D01*
X129550000Y-96540725D01*
X129805302Y-96922811D01*
X130270849Y-97233880D01*
X130820000Y-97343113D01*
X131369151Y-97233880D01*
X131834698Y-96922811D01*
X132090000Y-96540725D01*
X132345302Y-96922811D01*
X132810849Y-97233880D01*
X133360000Y-97343113D01*
X133909151Y-97233880D01*
X134374698Y-96922811D01*
X134685767Y-96457264D01*
X134795000Y-95908113D01*
X134795000Y-95851887D01*
X134685767Y-95302736D01*
X134374698Y-94837189D01*
X134122000Y-94668341D01*
X134122000Y-90929557D01*
X134301441Y-90814090D01*
X134446431Y-90601890D01*
X134497440Y-90350000D01*
X134497440Y-88650000D01*
X134453162Y-88414683D01*
X134314090Y-88198559D01*
X134101890Y-88053569D01*
X133850000Y-88002560D01*
X133762000Y-88002560D01*
X133762000Y-86497440D01*
X133850000Y-86497440D01*
X134085317Y-86453162D01*
X134301441Y-86314090D01*
X134446431Y-86101890D01*
X134497440Y-85850000D01*
X134497440Y-84150000D01*
X134453162Y-83914683D01*
X134314090Y-83698559D01*
X134101890Y-83553569D01*
X133850000Y-83502560D01*
X132150000Y-83502560D01*
X131914683Y-83546838D01*
X131698559Y-83685910D01*
X131553569Y-83898110D01*
X131539914Y-83965541D01*
X131510054Y-83920853D01*
X131028285Y-83598946D01*
X130460000Y-83485907D01*
X129891715Y-83598946D01*
X129409946Y-83920853D01*
X129190000Y-84250026D01*
X128970054Y-83920853D01*
X128488285Y-83598946D01*
X127920000Y-83485907D01*
X127351715Y-83598946D01*
X126869946Y-83920853D01*
X126650000Y-84250026D01*
X126430054Y-83920853D01*
X125948285Y-83598946D01*
X125380000Y-83485907D01*
X124811715Y-83598946D01*
X124329946Y-83920853D01*
X124008039Y-84402622D01*
X123895000Y-84970907D01*
X123895000Y-85029093D01*
X124008039Y-85597378D01*
X124329946Y-86079147D01*
X124618000Y-86271618D01*
X124618000Y-88228382D01*
X124329946Y-88420853D01*
X124008039Y-88902622D01*
X123895000Y-89470907D01*
X123895000Y-89529093D01*
X123957760Y-89844610D01*
X120564370Y-93238000D01*
X120000000Y-93238000D01*
X119708395Y-93296004D01*
X119461184Y-93461185D01*
X118441527Y-94480843D01*
X118120000Y-94416887D01*
X117570849Y-94526120D01*
X117105302Y-94837189D01*
X116850000Y-95219275D01*
X116594698Y-94837189D01*
X116129151Y-94526120D01*
X115580000Y-94416887D01*
X115030849Y-94526120D01*
X114565302Y-94837189D01*
X114295014Y-95241703D01*
X114192389Y-95024866D01*
X113777423Y-94648959D01*
X113389039Y-94488096D01*
X113167000Y-94610085D01*
X112913000Y-94610085D01*
X112690961Y-94488096D01*
X112302577Y-94648959D01*
X111887611Y-95024866D01*
X111784986Y-95241703D01*
X111514698Y-94837189D01*
X111049151Y-94526120D01*
X110500000Y-94416887D01*
X109950849Y-94526120D01*
X109485302Y-94837189D01*
X109174233Y-95302736D01*
X109065000Y-95851887D01*
X100127000Y-95851887D01*
X100127000Y-88650000D01*
X110002560Y-88650000D01*
X110002560Y-90350000D01*
X110046838Y-90585317D01*
X110185910Y-90801441D01*
X110398110Y-90946431D01*
X110650000Y-90997440D01*
X112350000Y-90997440D01*
X112585317Y-90953162D01*
X112801441Y-90814090D01*
X112946431Y-90601890D01*
X112960086Y-90534459D01*
X112989946Y-90579147D01*
X113471715Y-90901054D01*
X114040000Y-91014093D01*
X114608285Y-90901054D01*
X115090054Y-90579147D01*
X115310000Y-90249974D01*
X115529946Y-90579147D01*
X116011715Y-90901054D01*
X116580000Y-91014093D01*
X117148285Y-90901054D01*
X117630054Y-90579147D01*
X117850000Y-90249974D01*
X118069946Y-90579147D01*
X118551715Y-90901054D01*
X119120000Y-91014093D01*
X119688285Y-90901054D01*
X120170054Y-90579147D01*
X120491961Y-90097378D01*
X120605000Y-89529093D01*
X120605000Y-89470907D01*
X120491961Y-88902622D01*
X120170054Y-88420853D01*
X119688285Y-88098946D01*
X119120000Y-87985907D01*
X118551715Y-88098946D01*
X118069946Y-88420853D01*
X117850000Y-88750026D01*
X117630054Y-88420853D01*
X117148285Y-88098946D01*
X116580000Y-87985907D01*
X116011715Y-88098946D01*
X115529946Y-88420853D01*
X115310000Y-88750026D01*
X115090054Y-88420853D01*
X114608285Y-88098946D01*
X114040000Y-87985907D01*
X113471715Y-88098946D01*
X112989946Y-88420853D01*
X112962150Y-88462452D01*
X112953162Y-88414683D01*
X112814090Y-88198559D01*
X112601890Y-88053569D01*
X112350000Y-88002560D01*
X110650000Y-88002560D01*
X110414683Y-88046838D01*
X110198559Y-88185910D01*
X110053569Y-88398110D01*
X110002560Y-88650000D01*
X100127000Y-88650000D01*
X100127000Y-84150000D01*
X110002560Y-84150000D01*
X110002560Y-85850000D01*
X110046838Y-86085317D01*
X110185910Y-86301441D01*
X110398110Y-86446431D01*
X110650000Y-86497440D01*
X112350000Y-86497440D01*
X112585317Y-86453162D01*
X112801441Y-86314090D01*
X112946431Y-86101890D01*
X112960086Y-86034459D01*
X112989946Y-86079147D01*
X113471715Y-86401054D01*
X114040000Y-86514093D01*
X114608285Y-86401054D01*
X115090054Y-86079147D01*
X115310000Y-85749974D01*
X115529946Y-86079147D01*
X116011715Y-86401054D01*
X116580000Y-86514093D01*
X117148285Y-86401054D01*
X117630054Y-86079147D01*
X117850000Y-85749974D01*
X118069946Y-86079147D01*
X118551715Y-86401054D01*
X119120000Y-86514093D01*
X119688285Y-86401054D01*
X120170054Y-86079147D01*
X120491961Y-85597378D01*
X120605000Y-85029093D01*
X120605000Y-84970907D01*
X120491961Y-84402622D01*
X120170054Y-83920853D01*
X119688285Y-83598946D01*
X119120000Y-83485907D01*
X118551715Y-83598946D01*
X118069946Y-83920853D01*
X117850000Y-84250026D01*
X117630054Y-83920853D01*
X117148285Y-83598946D01*
X116580000Y-83485907D01*
X116011715Y-83598946D01*
X115529946Y-83920853D01*
X115310000Y-84250026D01*
X115090054Y-83920853D01*
X114608285Y-83598946D01*
X114040000Y-83485907D01*
X113471715Y-83598946D01*
X112989946Y-83920853D01*
X112962150Y-83962452D01*
X112953162Y-83914683D01*
X112814090Y-83698559D01*
X112601890Y-83553569D01*
X112350000Y-83502560D01*
X110650000Y-83502560D01*
X110414683Y-83546838D01*
X110198559Y-83685910D01*
X110053569Y-83898110D01*
X110002560Y-84150000D01*
X100127000Y-84150000D01*
X100127000Y-78127000D01*
X137873000Y-78127000D01*
X137873000Y-120873000D01*
M02*
