G04 #@! TF.FileFunction,Copper,L1,Top,Signal*
%FSLAX46Y46*%
G04 Gerber Fmt 4.6, Leading zero omitted, Abs format (unit mm)*
G04 Created by KiCad (PCBNEW 4.0.5) date Saturday, June 17, 2017 'PMt' 05:29:07 PM*
%MOMM*%
%LPD*%
G01*
G04 APERTURE LIST*
%ADD10C,0.100000*%
%ADD11R,1.600000X1.600000*%
%ADD12O,1.600000X1.600000*%
%ADD13R,1.700000X1.700000*%
%ADD14O,1.700000X1.700000*%
%ADD15C,0.254000*%
G04 APERTURE END LIST*
D10*
D11*
X110500000Y-103500000D03*
D12*
X133360000Y-95880000D03*
X113040000Y-103500000D03*
X130820000Y-95880000D03*
X115580000Y-103500000D03*
X128280000Y-95880000D03*
X118120000Y-103500000D03*
X125740000Y-95880000D03*
X120660000Y-103500000D03*
X123200000Y-95880000D03*
X123200000Y-103500000D03*
X120660000Y-95880000D03*
X125740000Y-103500000D03*
X118120000Y-95880000D03*
X128280000Y-103500000D03*
X115580000Y-95880000D03*
X130820000Y-103500000D03*
X113040000Y-95880000D03*
X133360000Y-103500000D03*
X110500000Y-95880000D03*
D13*
X104000000Y-98000000D03*
D14*
X104000000Y-100540000D03*
D13*
X111500000Y-89500000D03*
D14*
X114040000Y-89500000D03*
X116580000Y-89500000D03*
X119120000Y-89500000D03*
D13*
X132500000Y-109000000D03*
D14*
X129960000Y-109000000D03*
X127420000Y-109000000D03*
X124880000Y-109000000D03*
D13*
X111500000Y-85000000D03*
D14*
X114040000Y-85000000D03*
X116580000Y-85000000D03*
X119120000Y-85000000D03*
D13*
X132500000Y-113500000D03*
D14*
X129960000Y-113500000D03*
X127420000Y-113500000D03*
X124880000Y-113500000D03*
D13*
X112000000Y-109000000D03*
D14*
X114540000Y-109000000D03*
X117080000Y-109000000D03*
X119620000Y-109000000D03*
D13*
X133000000Y-89500000D03*
D14*
X130460000Y-89500000D03*
X127920000Y-89500000D03*
X125380000Y-89500000D03*
D13*
X112000000Y-113500000D03*
D14*
X114540000Y-113500000D03*
X117080000Y-113500000D03*
X119620000Y-113500000D03*
D13*
X133000000Y-85000000D03*
D14*
X130460000Y-85000000D03*
X127920000Y-85000000D03*
X125380000Y-85000000D03*
D15*
X112000000Y-113500000D02*
X112000000Y-109000000D01*
X112000000Y-109000000D02*
X112000000Y-106000000D01*
X112000000Y-106000000D02*
X113040000Y-104960000D01*
X113040000Y-104960000D02*
X113040000Y-103500000D01*
X114540000Y-113500000D02*
X114540000Y-109000000D01*
X114540000Y-109000000D02*
X118120000Y-105420000D01*
X118120000Y-105420000D02*
X118120000Y-103500000D01*
X117080000Y-113500000D02*
X117080000Y-109000000D01*
X117080000Y-109000000D02*
X120580000Y-105500000D01*
X120580000Y-105500000D02*
X121200000Y-105500000D01*
X121200000Y-105500000D02*
X123200000Y-103500000D01*
X119620000Y-113500000D02*
X119620000Y-109000000D01*
X119620000Y-109000000D02*
X122120000Y-106500000D01*
X122120000Y-106500000D02*
X125280000Y-106500000D01*
X125280000Y-106500000D02*
X128280000Y-103500000D01*
X111500000Y-85000000D02*
X111500000Y-89500000D01*
X111500000Y-89500000D02*
X115580000Y-93580000D01*
X115580000Y-93580000D02*
X115580000Y-95880000D01*
X114040000Y-89500000D02*
X114280000Y-89500000D01*
X114280000Y-89500000D02*
X120660000Y-95880000D01*
X114040000Y-85000000D02*
X114040000Y-89500000D01*
X116580000Y-85000000D02*
X116580000Y-89500000D01*
X116580000Y-89500000D02*
X120580000Y-93500000D01*
X120580000Y-93500000D02*
X123360000Y-93500000D01*
X123360000Y-93500000D02*
X125740000Y-95880000D01*
X119120000Y-85000000D02*
X119120000Y-89500000D01*
X119120000Y-89500000D02*
X122120000Y-92500000D01*
X122120000Y-92500000D02*
X127440000Y-92500000D01*
X127440000Y-92500000D02*
X130820000Y-95880000D01*
X104000000Y-98000000D02*
X108380000Y-98000000D01*
X108380000Y-98000000D02*
X110500000Y-95880000D01*
M02*
