G04 #@! TF.FileFunction,Soldermask,Top*
%FSLAX46Y46*%
G04 Gerber Fmt 4.6, Leading zero omitted, Abs format (unit mm)*
G04 Created by KiCad (PCBNEW 4.0.5) date Saturday, June 17, 2017 'PMt' 05:29:07 PM*
%MOMM*%
%LPD*%
G01*
G04 APERTURE LIST*
%ADD10C,0.100000*%
%ADD11R,2.000000X2.000000*%
%ADD12O,2.000000X2.000000*%
%ADD13R,2.100000X2.100000*%
%ADD14O,2.100000X2.100000*%
G04 APERTURE END LIST*
D10*
D11*
X110500000Y-103500000D03*
D12*
X133360000Y-95880000D03*
X113040000Y-103500000D03*
X130820000Y-95880000D03*
X115580000Y-103500000D03*
X128280000Y-95880000D03*
X118120000Y-103500000D03*
X125740000Y-95880000D03*
X120660000Y-103500000D03*
X123200000Y-95880000D03*
X123200000Y-103500000D03*
X120660000Y-95880000D03*
X125740000Y-103500000D03*
X118120000Y-95880000D03*
X128280000Y-103500000D03*
X115580000Y-95880000D03*
X130820000Y-103500000D03*
X113040000Y-95880000D03*
X133360000Y-103500000D03*
X110500000Y-95880000D03*
D13*
X104000000Y-98000000D03*
D14*
X104000000Y-100540000D03*
D13*
X111500000Y-89500000D03*
D14*
X114040000Y-89500000D03*
X116580000Y-89500000D03*
X119120000Y-89500000D03*
D13*
X132500000Y-109000000D03*
D14*
X129960000Y-109000000D03*
X127420000Y-109000000D03*
X124880000Y-109000000D03*
D13*
X111500000Y-85000000D03*
D14*
X114040000Y-85000000D03*
X116580000Y-85000000D03*
X119120000Y-85000000D03*
D13*
X132500000Y-113500000D03*
D14*
X129960000Y-113500000D03*
X127420000Y-113500000D03*
X124880000Y-113500000D03*
D13*
X112000000Y-109000000D03*
D14*
X114540000Y-109000000D03*
X117080000Y-109000000D03*
X119620000Y-109000000D03*
D13*
X133000000Y-89500000D03*
D14*
X130460000Y-89500000D03*
X127920000Y-89500000D03*
X125380000Y-89500000D03*
D13*
X112000000Y-113500000D03*
D14*
X114540000Y-113500000D03*
X117080000Y-113500000D03*
X119620000Y-113500000D03*
D13*
X133000000Y-85000000D03*
D14*
X130460000Y-85000000D03*
X127920000Y-85000000D03*
X125380000Y-85000000D03*
M02*
